<svg width="25" height="20" viewBox="0 0 25 20" version="1.1" xmlns="http://www.w3.org/2000/svg" xmlns:xlink="http://www.w3.org/1999/xlink">
<title> twitter</title>
<desc>Created using Figma</desc>
<g id="Canvas" transform="translate(-14010 -14827)">
<g id="icon / twitter">
<use xlink:href="#path0_fill" transform="translate(14010 14827)" fill="#F2994A"/>
</g>
</g>
<defs>
<path id="path0_fill" d="M 24.7619 2.36752C 23.8507 2.76906 22.8718 3.0405 21.8442 3.16254C 22.893 2.53767 23.6985 1.54822 24.0779 0.369151C 23.0961 0.947824 22.009 1.36797 20.8518 1.59437C 19.9252 0.613088 18.6048 6.16087e-08 17.1436 6.16087e-08C 14.338 6.16087e-08 12.0635 2.26052 12.0635 5.04886C 12.0635 5.44459 12.1084 5.82994 12.195 6.19952C 7.97293 5.9889 4.22959 3.97885 1.724 0.924079C 1.2867 1.66978 1.03613 2.5371 1.03613 3.46242C 1.03613 5.21416 1.93297 6.7596 3.29613 7.66502C 2.46337 7.63878 1.68003 7.41167 0.995165 7.03348C 0.994682 7.05453 0.994682 7.07568 0.994682 7.09697C 0.994682 9.54327 2.74586 11.5839 5.0698 12.0478C 4.64357 12.1631 4.19472 12.225 3.7314 12.225C 3.40403 12.225 3.0858 12.1933 2.77555 12.1343C 3.42207 14.1401 5.29817 15.6001 7.52122 15.6407C 5.78257 16.995 3.59207 17.8021 1.21188 17.8021C 0.80181 17.8021 0.397447 17.7783 2.29998e-12 17.7314C 2.2482 19.1641 4.91857 20 7.78746 20C 17.1317 20 22.2416 12.3064 22.2416 5.63426C 22.2416 5.41537 22.2366 5.19763 22.2269 4.98104C 23.2196 4.26922 24.0809 3.37999 24.7619 2.36752Z"/>
</defs>
</svg>
