<svg width="29" height="16" viewBox="0 0 29 16" version="1.1" xmlns="http://www.w3.org/2000/svg" xmlns:xlink="http://www.w3.org/1999/xlink">
<title> vk</title>
<desc>Created using Figma</desc>
<g id="Canvas" transform="translate(-13957 -14829)">
<g id="icon / vk">
<use xlink:href="#path0_fill" transform="translate(13957 14829)" fill="#F2994A"/>
</g>
</g>
<defs>
<path id="path0_fill" d="M 28.041 14.4498C 28.0068 14.3766 27.975 14.3159 27.9455 14.2672C 27.4564 13.3909 26.5217 12.3154 25.142 11.0402L 25.1129 11.011L 25.0983 10.9966L 25.0835 10.982L 25.0687 10.982C 24.4426 10.3882 24.046 9.98892 23.88 9.78451C 23.5762 9.39512 23.5081 9.00098 23.6742 8.60162C 23.7915 8.29989 24.2321 7.66268 24.9952 6.68912C 25.3965 6.17316 25.7144 5.75964 25.9491 5.44809C 27.642 3.20916 28.376 1.77845 28.1508 1.1554L 28.0634 1.0098C 28.0046 0.922148 27.853 0.841959 27.6086 0.768828C 27.3637 0.695851 27.0507 0.683782 26.669 0.732417L 22.4419 0.761464C 22.3735 0.737326 22.2757 0.739576 22.1483 0.768828C 22.0211 0.798081 21.9574 0.812759 21.9574 0.812759L 21.8838 0.849324L 21.8254 0.893253C 21.7765 0.922301 21.7227 0.973391 21.6639 1.04642C 21.6055 1.11919 21.5566 1.2046 21.5175 1.30192C 21.0573 2.47974 20.5341 3.57481 19.9468 4.58709C 19.5847 5.1907 19.2522 5.71382 18.9486 6.15675C 18.6453 6.59952 18.3909 6.92575 18.1855 7.13486C 17.9799 7.34418 17.7943 7.51187 17.6277 7.63854C 17.4613 7.76527 17.3342 7.81882 17.2463 7.79923C 17.1581 7.77964 17.0751 7.76021 16.9965 7.74077C 16.8596 7.65312 16.7494 7.53391 16.6664 7.38305C 16.583 7.23218 16.5269 7.0423 16.4975 6.81354C 16.4683 6.58464 16.4511 6.38775 16.4461 6.22221C 16.4416 6.05687 16.4437 5.823 16.4536 5.52127C 16.4638 5.21939 16.4683 5.01513 16.4683 4.90805C 16.4683 4.53809 16.4756 4.13659 16.4901 3.70343C 16.5049 3.27027 16.5169 2.92706 16.5269 2.67422C 16.5369 2.42113 16.5415 2.15336 16.5415 1.87106C 16.5415 1.58877 16.5243 1.36738 16.4901 1.20669C 16.4564 1.04621 16.4046 0.890441 16.3364 0.739423C 16.2678 0.588558 16.1673 0.471855 16.0355 0.389007C 15.9035 0.306262 15.7393 0.240597 15.5439 0.191809C 15.0252 0.0750551 14.3647 0.0118965 13.5622 0.00207753C 11.7423 -0.0173559 10.5729 0.0995513 10.0543 0.352646C 9.84879 0.459581 9.66285 0.60569 9.49659 0.790512C 9.32041 1.00474 9.29584 1.12165 9.42303 1.14088C 10.0102 1.22838 10.4259 1.4377 10.6706 1.76863L 10.7587 1.94399C 10.8273 2.07051 10.8958 2.29451 10.9643 2.61567C 11.0327 2.93683 11.0769 3.29211 11.0963 3.68129C 11.1452 4.39199 11.1452 5.00036 11.0963 5.50644C 11.0473 6.01273 11.0011 6.40688 10.9569 6.68917C 10.9127 6.97147 10.8467 7.20022 10.7587 7.37538C 10.6706 7.55058 10.6119 7.65767 10.5825 7.69654C 10.5531 7.7354 10.5287 7.7599 10.5092 7.76952C 10.3821 7.818 10.2498 7.8427 10.1129 7.8427C 9.97577 7.8427 9.80951 7.77448 9.61385 7.63814C 9.41824 7.50179 9.21523 7.31452 9.00481 7.076C 8.7944 6.83743 8.5571 6.50404 8.2928 6.07579C 8.02872 5.64754 7.75471 5.1414 7.47093 4.55738L 7.23615 4.13383C 7.08937 3.86135 6.88888 3.4646 6.63446 2.94394C 6.37988 2.42307 6.15487 1.91924 5.95925 1.43253C 5.88106 1.22812 5.76359 1.0725 5.60705 0.965413L 5.53359 0.921483C 5.48475 0.882616 5.40635 0.841346 5.29881 0.797365C 5.1911 0.753435 5.07873 0.721932 4.9612 0.70255L 0.939547 0.731598C 0.528585 0.731598 0.249744 0.824213 0.10292 1.00919L 0.0441601 1.09669C 0.0148057 1.14543 0 1.22326 0 1.3304C 0 1.43749 0.0293544 1.56892 0.0881147 1.72454C 0.675203 3.09716 1.31365 4.42093 2.00345 5.69607C 2.69325 6.97121 3.29268 7.99837 3.80137 8.77663C 4.31016 9.55545 4.82878 10.2905 5.35721 10.9814C 5.88564 11.6726 6.23542 12.1155 6.40656 12.3101C 6.57791 12.505 6.7125 12.6508 6.81033 12.7481L 7.17733 13.0985C 7.41217 13.3321 7.75702 13.612 8.21204 13.938C 8.66716 14.2642 9.17102 14.5854 9.72387 14.902C 10.2768 15.2181 10.9201 15.476 11.6541 15.6755C 12.3879 15.8752 13.1022 15.9554 13.797 15.9167L 15.4849 15.9167C 15.8273 15.8873 16.0866 15.7802 16.2629 15.5954L 16.3213 15.5222C 16.3606 15.4641 16.3973 15.3739 16.4313 15.2524C 16.4656 15.1307 16.4827 14.9967 16.4827 14.8509C 16.4727 14.4324 16.5047 14.0553 16.5779 13.7195C 16.651 13.3838 16.7344 13.1307 16.8277 12.9602C 16.9209 12.7899 17.0261 12.6462 17.1431 12.5297C 17.2604 12.413 17.344 12.3423 17.3931 12.3179C 17.4418 12.2934 17.4807 12.2768 17.5101 12.2668C 17.7449 12.189 18.0213 12.2644 18.3396 12.4933C 18.6577 12.7221 18.956 13.0045 19.2351 13.3402C 19.514 13.6762 19.849 14.0532 20.2404 14.4716C 20.6319 14.8903 20.9743 15.2015 21.2678 15.4062L 21.5612 15.5814C 21.7572 15.6983 22.0116 15.8054 22.3248 15.9027C 22.6374 16 22.9113 16.0243 23.1465 15.9757L 26.9038 15.9174C 27.2754 15.9174 27.5646 15.8562 27.7697 15.7347C 27.9753 15.6131 28.0974 15.479 28.1367 15.3332C 28.176 15.1873 28.1781 15.0217 28.1442 14.8365C 28.1094 14.6519 28.0751 14.5227 28.041 14.4498Z"/>
</defs>
</svg>
